<svg width="171px" height="160px" viewBox="0 0 171 160" version="1.1" xmlns="http://www.w3.org/2000/svg" xmlns:xlink="http://www.w3.org/1999/xlink">
    <defs>
        <path d="M139,160 L115.611089,160 C109.63582,160 104.279418,156.322206 102.145393,150.749146 C102.145393,150.749146 37.0149581,4.93279623 35.7558835,2.46746168 C34.5181492,0 32,0 32,0 L57.2455126,0 C63.7116075,0 69.4948145,3.9777184 71.7995612,9.99747404 L139,160 Z" id="path-1"></path>
    </defs>
    <g id="Welcome" stroke="none" stroke-width="1" fill="none" fill-rule="evenodd">
        <g id="Desktop-Copy-2" transform="translate(-876.000000, -127.000000)">
            <g id="logo" transform="translate(876.000000, 127.000000)">
                <path d="M135.785697,142.22649 L135.785697,109.233785 C135.785697,100.060017 136.886011,93.3360007 139.09088,89.0681391 C141.293629,84.8237507 145.069468,82.1328639 150.369634,81.0232198 C145.069468,79.9775937 141.293629,77.3315195 139.09088,73.0636578 C136.886011,68.8192694 135.785697,62.0525747 135.785697,52.7913149 L135.785697,17.6668134 C135.785697,12.4173435 134.914349,8.70430387 133.178015,6.57037304 C131.43744,4.4151029 128.450267,3.3289321 124.210134,3.3289321 L124.210134,0 L142.652592,0 C149.415604,0 154.209074,1.57697489 157.005442,4.73732645 C159.803929,7.87420478 161.203173,13.2709159 161.203173,20.8911829 L161.203173,24.1134184 L159.761528,59.4705184 L159.761528,62.137932 C159.761528,67.9849024 160.696477,72.4682911 162.536695,75.5838301 C164.383273,78.6758959 167.202961,80.5132104 171,81.0232198 C167.202961,81.6228544 164.383273,83.4580349 162.536695,86.57144 C160.696477,89.686979 159.761528,94.1255552 159.761528,99.9106416 L159.761528,102.682618 L161.203173,135.910055 L161.203173,139.110951 C161.203173,146.74829 159.803929,152.127929 157.005442,155.286147 C154.209074,158.444364 149.415604,160 142.652592,160 L111,160 C111,160 126.32808,160 133.220416,153.386948 C135.168757,151.530429 135.785697,147.559183 135.785697,142.22649 Z" id="Fill-180" fill="#333333"></path>
                <path d="M22.2204162,153.386948 C24.1687573,151.530429 24.7856966,147.559183 24.7856966,142.22649 L24.7856966,109.233785 C24.7856966,100.060017 25.8860111,93.3360007 28.0908802,89.0681391 C30.2936292,84.8237507 34.0694675,82.1328639 39.3696336,81.0232198 C34.0694675,79.9775937 30.2936292,77.3315195 28.0908802,73.0636578 C25.8860111,68.8192694 24.7856966,62.0525747 24.7856966,52.7913149 L24.7856966,17.6668134 C24.7856966,12.4173435 23.9143493,8.70430387 22.1780149,6.57037304 C20.4374404,4.4151029 17.4502668,3.3289321 13.2101339,3.3289321 L13.2101339,0 L31.6525918,0 C38.4156037,0 43.2090739,1.57697489 46.0054415,4.73732645 C48.8039292,7.87420478 50.203173,13.2709159 50.203173,20.8911829 L50.203173,24.1134184 L48.7615279,59.4705184 L48.7615279,62.137932 C48.7615279,67.9849024 49.6964772,72.4682911 51.5366948,75.5838301 C53.3832727,78.6758959 56.202961,80.5132104 60,81.0232198 C56.202961,81.6228544 53.3832727,83.4580349 51.5366948,86.57144 C49.6964772,89.686979 48.7615279,94.1255552 48.7615279,99.9106416 L48.7615279,102.682618 L50.203173,135.910055 L50.203173,139.110951 C50.203173,146.74829 48.8039292,152.127929 46.0054415,155.286147 C43.2090739,158.444364 38.4156037,160 31.6525918,160 L0,160 C0,160 15.3280803,160 22.2204162,153.386948" id="Fill-180-Copy" fill="#333333" transform="translate(30.000000, 80.000000) rotate(-180.000000) translate(-30.000000, -80.000000) "></path>
                <mask id="mask-2" fill="white">
                    <use xlink:href="#path-1"></use>
                </mask>
                <use id="v" fill="#333333" xlink:href="#path-1"></use>
            </g>
        </g>
    </g>
</svg>